<?xml version="1.0" encoding="utf-8"?>
<!-- Generator: Adobe Illustrator 17.1.0, SVG Export Plug-In . SVG Version: 6.00 Build 0)  -->
<!DOCTYPE svg PUBLIC "-//W3C//DTD SVG 1.1//EN" "http://www.w3.org/Graphics/SVG/1.1/DTD/svg11.dtd">
<svg version="1.1" id="Laag_1" xmlns="http://www.w3.org/2000/svg" xmlns:xlink="http://www.w3.org/1999/xlink" x="0px" y="0px"
	 viewBox="0 0 265.4 204.3" enable-background="new 0 0 265.4 204.3" xml:space="preserve">
<g id="Layer_1" display="none">
	<path display="inline" fill="#C9C9C9" d="M265,204.3V101h40v63.9C305,164.9,309.6,203.3,265,204.3z"/>
	<path display="inline" fill="#C9C9C9" d="M265,0v103.3h40V39.3C305,39.3,309.6,1,265,0z"/>
</g>
<g id="Layer_3" display="none">
	<path display="inline" fill="#B7B7B7" d="M265.1,204.3V101h-40v63.9C225.1,164.9,220.4,203.3,265.1,204.3z"/>
	<path display="inline" fill="#B7B7B7" d="M265.1,0.1v103.3h-40V39.5C225.1,39.5,220.4,1.1,265.1,0.1z"/>
	<rect x="260.1" y="23.5" display="inline" fill="#050606" width="5.3" height="159.3"/>
</g>
<g id="Layer_2">
	<g id="Laag_2">
		
			<linearGradient id="SVGID_1_" gradientUnits="userSpaceOnUse" x1="133.11" y1="166.903" x2="133.11" y2="34.8865" gradientTransform="matrix(1 0 0 -1 0 206)">
			<stop  offset="0.5" style="stop-color:#00A9A9"/>
			<stop  offset="0.5" style="stop-color:#00A39F"/>
		</linearGradient>
		<path fill="url(#SVGID_1_)" d="M266.2,151.1v-7c-3.7-0.4-3.7-6.2,0-6.6v-6.4c-3.7-0.4-3.7-6.2,0-6.6v-6.7
			c-10.2-1.2-18.4-10-18.4-20.5s8.2-19.4,18.4-20.5v-5.5c-3.7-0.4-3.7-6.2,0-6.6v-6.7c-4.1-0.1-4.1-6.5,0-6.7V46c0,0-0.1,0-0.1,0
			c-4.3,0-4.3-6.7,0-6.7c0,0,0.1,0,0.1,0v-1.9H0v4.8c0,0,0.1,0,0.1,0c4.3,0,4.3,6.7,0,6.7c0,0-0.1,0-0.1,0v4.9
			c4.1,0.1,4.1,6.5,0,6.7v5.8c3.7,0.4,3.7,6.2,0,6.6v7.2c9.5,1.8,16.9,10.3,16.9,20.3S9.5,118.8,0,120.6v6.9c3.7,0.4,3.7,6.2,0,6.6
			v5.8c4.1,0.1,4.1,6.5,0,6.7v6.1c3.7,0.4,3.7,6.2,0,6.6v11.3h266.2v-12.8C262.5,157.3,262.5,151.6,266.2,151.1z"/>
		<g>
			
				<linearGradient id="SVGID_2_" gradientUnits="userSpaceOnUse" x1="42.462" y1="135.0075" x2="51.469" y2="135.0075" gradientTransform="matrix(1 0 0 -1 0 206)">
				<stop  offset="0" style="stop-color:#00A9A9"/>
				<stop  offset="1" style="stop-color:#00A39F"/>
			</linearGradient>
			<path fill="url(#SVGID_2_)" d="M49.9,69.1c0,0,0-0.1,0-0.1c0,0,0,0,0-0.1c0-0.1,0-0.3,0.1-0.4s0.2-0.1,0.3-0.1
				c0.1,0,0.2,0,0.3,0.1c0.1,0.1,0.1,0.2,0.2,0.4l0.6,2c0,0,0,0.1,0,0.1s0,0.1,0,0.1c0,0.1,0,0.2-0.1,0.2c-0.1,0-0.2,0.1-0.3,0.1
				h-7.6v1.1c0,0.4,0,0.7-0.1,0.8s-0.2,0.2-0.4,0.2c-0.2,0-0.3,0-0.4-0.1c0-0.1-0.1-0.2-0.1-0.4v-4.1c0-0.2,0-0.3,0.1-0.4
				c0.1-0.1,0.2-0.1,0.4-0.1c0.2,0,0.3,0,0.4,0.2c0.1,0.1,0.1,0.4,0.1,0.8v1.2h6.8L49.9,69.1z"/>
			
				<linearGradient id="SVGID_3_" gradientUnits="userSpaceOnUse" x1="42.284" y1="126.7325" x2="51.513" y2="126.7325" gradientTransform="matrix(1 0 0 -1 0 206)">
				<stop  offset="0" style="stop-color:#00A9A9"/>
				<stop  offset="1" style="stop-color:#00A39F"/>
			</linearGradient>
			<path fill="url(#SVGID_3_)" d="M46.7,80.9c-0.3-0.3-0.6-0.5-0.7-0.8c-0.2-0.3-0.2-0.6-0.2-1c0-0.7,0.3-1.3,0.8-1.9
				c0.6-0.5,1.2-0.8,2-0.8c0.8,0,1.6,0.3,2.1,0.8c0.5,0.5,0.8,1.1,0.8,1.9c0,0.9-0.4,1.6-1.1,2.2c-0.8,0.5-1.7,0.8-2.9,0.8
				c-1.6,0-2.8-0.4-3.8-1.2c-0.9-0.8-1.4-1.9-1.4-3.2c0-0.4,0-0.7,0.1-0.8c0-0.1,0.2-0.2,0.4-0.2c0.3,0,0.4,0.3,0.4,0.8
				c0,0.4,0,0.7,0.1,0.9c0.1,0.7,0.5,1.3,1.1,1.8C44.9,80.5,45.7,80.7,46.7,80.9z M48.5,80.7c0.6,0,1-0.1,1.4-0.4
				c0.4-0.3,0.5-0.7,0.5-1.2S50.3,78.3,50,78c-0.4-0.3-0.8-0.4-1.3-0.4c-0.6,0-1,0.1-1.4,0.4c-0.4,0.3-0.5,0.7-0.5,1.1
				c0,0.4,0.2,0.8,0.5,1.1C47.6,80.6,48,80.7,48.5,80.7z"/>
			
				<linearGradient id="SVGID_4_" gradientUnits="userSpaceOnUse" x1="42.24" y1="118.213" x2="51.468" y2="118.213" gradientTransform="matrix(1 0 0 -1 0 206)">
				<stop  offset="0" style="stop-color:#00A9A9"/>
				<stop  offset="1" style="stop-color:#00A39F"/>
			</linearGradient>
			<path fill="url(#SVGID_4_)" d="M42.2,87.8c0-0.9,0.4-1.6,1.2-2.1c0.8-0.5,2-0.8,3.4-0.8s2.5,0.3,3.4,0.8s1.2,1.2,1.2,2.1
				s-0.4,1.6-1.2,2.1s-2,0.8-3.4,0.8s-2.5-0.3-3.4-0.8C42.7,89.3,42.2,88.7,42.2,87.8z M50.4,87.8c0-0.5-0.3-0.9-0.9-1.2
				s-1.5-0.4-2.7-0.4c-1.2,0-2,0.1-2.7,0.4s-0.9,0.7-0.9,1.2s0.3,0.9,0.9,1.2c0.6,0.3,1.5,0.4,2.7,0.4c1.2,0,2-0.1,2.7-0.4
				C50.1,88.8,50.4,88.3,50.4,87.8z"/>
			
				<linearGradient id="SVGID_5_" gradientUnits="userSpaceOnUse" x1="42.284" y1="109.6945" x2="51.513" y2="109.6945" gradientTransform="matrix(1 0 0 -1 0 206)">
				<stop  offset="0" style="stop-color:#00A9A9"/>
				<stop  offset="1" style="stop-color:#00A39F"/>
			</linearGradient>
			<path fill="url(#SVGID_5_)" d="M46.7,97.9c-0.3-0.3-0.6-0.5-0.7-0.8c-0.2-0.3-0.2-0.6-0.2-1c0-0.7,0.3-1.3,0.8-1.9
				c0.6-0.5,1.2-0.8,2-0.8c0.8,0,1.6,0.3,2.1,0.8c0.5,0.5,0.8,1.1,0.8,1.9c0,0.9-0.4,1.6-1.1,2.2c-0.8,0.5-1.7,0.8-2.9,0.8
				c-1.6,0-2.8-0.4-3.8-1.2c-0.9-0.8-1.4-1.9-1.4-3.2c0-0.4,0-0.7,0.1-0.8s0.2-0.2,0.4-0.2c0.3,0,0.4,0.3,0.4,0.8
				c0,0.4,0,0.7,0.1,0.9c0.1,0.7,0.5,1.3,1.1,1.8C44.9,97.5,45.7,97.8,46.7,97.9z M48.5,97.8c0.6,0,1-0.1,1.4-0.4
				c0.4-0.3,0.5-0.7,0.5-1.2s-0.2-0.8-0.5-1.1c-0.4-0.3-0.8-0.4-1.3-0.4c-0.6,0-1,0.1-1.4,0.4c-0.4,0.3-0.5,0.7-0.5,1.1
				c0,0.4,0.2,0.8,0.5,1.1C47.6,97.6,48,97.8,48.5,97.8z"/>
			
				<linearGradient id="SVGID_6_" gradientUnits="userSpaceOnUse" x1="42.374" y1="101.4195" x2="51.336" y2="101.4195" gradientTransform="matrix(1 0 0 -1 0 206)">
				<stop  offset="0" style="stop-color:#00A9A9"/>
				<stop  offset="1" style="stop-color:#00A39F"/>
			</linearGradient>
			<path fill="url(#SVGID_6_)" d="M42.5,102.4c0-0.3,0-0.4,0.1-0.5s0.3-0.2,0.4-0.2c0.3,0,0.8,0.4,1.7,1.3l0.2,0.2
				c0.1,0.1,0.3,0.3,0.5,0.6c1.5,1.6,2.6,2.4,3.3,2.4c0.5,0,0.9-0.1,1.2-0.4c0.3-0.3,0.4-0.7,0.4-1.1c0-0.3,0-0.6-0.2-0.8
				s-0.3-0.5-0.5-0.6c0,0-0.1-0.1-0.2-0.1c-0.3-0.2-0.4-0.4-0.4-0.6c0-0.2,0-0.3,0.1-0.4c0.1-0.1,0.3-0.1,0.6-0.1c0.2,0,0.3,0,0.4,0
				s0.2,0.1,0.3,0.2c0.3,0.3,0.5,0.7,0.7,1.1c0.2,0.4,0.3,0.9,0.3,1.3c0,0.8-0.3,1.4-0.8,1.9c-0.5,0.5-1.1,0.8-1.8,0.8
				c-0.9,0-2.1-0.8-3.6-2.4c-0.4-0.4-0.7-0.7-0.9-0.9l-0.8-0.8v3.2c0.2,0,0.4,0.1,0.4,0.2c0.1,0.1,0.2,0.2,0.2,0.4s0,0.3-0.1,0.4
				c-0.1,0.1-0.2,0.1-0.4,0.1c0,0,0,0-0.1,0c0,0,0,0-0.1,0l-0.5,0c-0.1,0-0.3,0-0.4-0.1c-0.1-0.1-0.1-0.2-0.1-0.3L42.5,102.4
				L42.5,102.4L42.5,102.4z"/>
			
				<linearGradient id="SVGID_7_" gradientUnits="userSpaceOnUse" x1="42.24" y1="92.656" x2="51.468" y2="92.656" gradientTransform="matrix(1 0 0 -1 0 206)">
				<stop  offset="0" style="stop-color:#00A9A9"/>
				<stop  offset="1" style="stop-color:#00A39F"/>
			</linearGradient>
			<path fill="url(#SVGID_7_)" d="M42.2,113.3c0-0.9,0.4-1.6,1.2-2.1c0.8-0.5,2-0.8,3.4-0.8s2.5,0.3,3.4,0.8
				c0.8,0.5,1.2,1.2,1.2,2.1s-0.4,1.6-1.2,2.1c-0.8,0.5-2,0.8-3.4,0.8s-2.5-0.3-3.4-0.8C42.7,114.9,42.2,114.2,42.2,113.3z
				 M50.4,113.3c0-0.5-0.3-0.9-0.9-1.2c-0.6-0.3-1.5-0.4-2.7-0.4c-1.2,0-2,0.1-2.7,0.4s-0.9,0.7-0.9,1.2s0.3,0.9,0.9,1.2
				c0.6,0.3,1.5,0.4,2.7,0.4c1.2,0,2-0.1,2.7-0.4C50.1,114.3,50.4,113.9,50.4,113.3z"/>
			
				<linearGradient id="SVGID_8_" gradientUnits="userSpaceOnUse" x1="42.462" y1="83.9155" x2="51.469" y2="83.9155" gradientTransform="matrix(1 0 0 -1 0 206)">
				<stop  offset="0" style="stop-color:#00A9A9"/>
				<stop  offset="1" style="stop-color:#00A39F"/>
			</linearGradient>
			<path fill="url(#SVGID_8_)" d="M49.9,120.2c0,0,0-0.1,0-0.1s0,0,0-0.1c0-0.1,0-0.3,0.1-0.4c0.1-0.1,0.2-0.1,0.3-0.1
				c0.1,0,0.2,0,0.3,0.1c0.1,0.1,0.1,0.2,0.2,0.4l0.6,2c0,0,0,0.1,0,0.1s0,0.1,0,0.1c0,0.1,0,0.2-0.1,0.2c-0.1,0-0.2,0.1-0.3,0.1
				h-7.6v1.1c0,0.4,0,0.7-0.1,0.8c0,0.1-0.2,0.2-0.4,0.2c-0.2,0-0.3,0-0.4-0.1c0-0.1-0.1-0.2-0.1-0.4V120c0-0.2,0-0.3,0.1-0.4
				c0.1-0.1,0.2-0.1,0.4-0.1c0.2,0,0.3,0,0.4,0.2c0.1,0.1,0.1,0.4,0.1,0.8v1.2h6.8L49.9,120.2z"/>
			
				<linearGradient id="SVGID_9_" gradientUnits="userSpaceOnUse" x1="42.462" y1="75.3745" x2="51.469" y2="75.3745" gradientTransform="matrix(1 0 0 -1 0 206)">
				<stop  offset="0" style="stop-color:#00A9A9"/>
				<stop  offset="1" style="stop-color:#00A39F"/>
			</linearGradient>
			<path fill="url(#SVGID_9_)" d="M49.9,128.7c0,0,0-0.1,0-0.1s0,0,0-0.1c0-0.1,0-0.3,0.1-0.4s0.2-0.1,0.3-0.1c0.1,0,0.2,0,0.3,0.1
				c0.1,0.1,0.1,0.2,0.2,0.4l0.6,2c0,0,0,0.1,0,0.1s0,0.1,0,0.1c0,0.1,0,0.2-0.1,0.2c-0.1,0-0.2,0.1-0.3,0.1h-7.6v1.1
				c0,0.4,0,0.7-0.1,0.8c0,0.1-0.2,0.2-0.4,0.2c-0.2,0-0.3,0-0.4-0.1c0-0.1-0.1-0.2-0.1-0.4v-4.1c0-0.2,0-0.3,0.1-0.4
				c0.1-0.1,0.2-0.1,0.4-0.1c0.2,0,0.3,0,0.4,0.2s0.1,0.4,0.1,0.8v1.2h6.8L49.9,128.7z"/>
		</g>
		<g>
			
				<linearGradient id="SVGID_10_" gradientUnits="userSpaceOnUse" x1="214.884" y1="75.8175" x2="223.803" y2="75.8175" gradientTransform="matrix(1 0 0 -1 0 206)">
				<stop  offset="0" style="stop-color:#00A9A9"/>
				<stop  offset="1" style="stop-color:#00A39F"/>
			</linearGradient>
			<path fill="url(#SVGID_10_)" d="M216.4,132.1c0,0,0,0.1,0,0.1s0,0,0,0.1c0,0.1,0,0.3-0.1,0.4c-0.1,0.1-0.2,0.1-0.3,0.1
				c-0.1,0-0.2,0-0.3-0.1c-0.1-0.1-0.1-0.2-0.2-0.4l-0.6-2c0,0,0-0.1,0-0.1s0-0.1,0-0.1c0-0.1,0-0.2,0.1-0.2c0.1,0,0.2-0.1,0.3-0.1
				h7.5v-1.1c0-0.4,0-0.7,0.1-0.8c0.1-0.1,0.2-0.2,0.4-0.2c0.2,0,0.3,0,0.4,0.1c0,0.1,0.1,0.2,0.1,0.4v4.1c0,0.2,0,0.3-0.1,0.4
				c-0.1,0.1-0.2,0.1-0.4,0.1c-0.2,0-0.3,0-0.4-0.2c-0.1-0.1-0.1-0.4-0.1-0.8v-1.2H216L216.4,132.1z"/>
			
				<linearGradient id="SVGID_11_" gradientUnits="userSpaceOnUse" x1="214.884" y1="84.0925" x2="224.113" y2="84.0925" gradientTransform="matrix(1 0 0 -1 0 206)">
				<stop  offset="0" style="stop-color:#00A9A9"/>
				<stop  offset="1" style="stop-color:#00A39F"/>
			</linearGradient>
			<path fill="url(#SVGID_11_)" d="M219.7,120.3c0.3,0.3,0.6,0.5,0.7,0.8c0.2,0.3,0.2,0.6,0.2,1c0,0.7-0.3,1.3-0.8,1.9
				c-0.5,0.5-1.2,0.8-2,0.8c-0.8,0-1.6-0.3-2.1-0.8c-0.5-0.5-0.8-1.1-0.8-1.9c0-0.9,0.4-1.6,1.1-2.2c0.7-0.6,1.7-0.8,2.9-0.8
				c1.6,0,2.8,0.4,3.8,1.2c0.9,0.8,1.4,1.9,1.4,3.2c0,0.4,0,0.7-0.1,0.8c0,0.1-0.2,0.2-0.4,0.2c-0.3,0-0.4-0.3-0.4-0.8
				c0-0.4,0-0.7-0.1-0.9c-0.1-0.7-0.5-1.3-1.1-1.8C221.5,120.7,220.7,120.4,219.7,120.3z M217.9,120.4c-0.6,0-1,0.1-1.4,0.4
				c-0.4,0.3-0.5,0.7-0.5,1.2s0.2,0.8,0.5,1.1c0.4,0.3,0.8,0.4,1.3,0.4c0.6,0,1-0.1,1.4-0.4c0.4-0.3,0.5-0.7,0.5-1.1
				s-0.2-0.8-0.5-1.1C218.8,120.6,218.3,120.4,217.9,120.4z"/>
			
				<linearGradient id="SVGID_12_" gradientUnits="userSpaceOnUse" x1="214.885" y1="92.612" x2="224.113" y2="92.612" gradientTransform="matrix(1 0 0 -1 0 206)">
				<stop  offset="0" style="stop-color:#00A9A9"/>
				<stop  offset="1" style="stop-color:#00A39F"/>
			</linearGradient>
			<path fill="url(#SVGID_12_)" d="M224.1,113.4c0,0.9-0.4,1.6-1.2,2.1s-2,0.8-3.4,0.8s-2.5-0.3-3.4-0.8c-0.8-0.5-1.2-1.2-1.2-2.1
				s0.4-1.6,1.2-2.1s2-0.8,3.4-0.8s2.5,0.3,3.4,0.8C223.7,111.8,224.1,112.5,224.1,113.4z M215.9,113.4c0,0.5,0.3,0.9,0.9,1.2
				c0.6,0.3,1.5,0.4,2.7,0.4c1.2,0,2-0.1,2.7-0.4s0.9-0.7,0.9-1.2s-0.3-0.9-0.9-1.2c-0.6-0.3-1.5-0.4-2.7-0.4c-1.2,0-2,0.1-2.7,0.4
				C216.2,112.4,215.9,112.9,215.9,113.4z"/>
			
				<linearGradient id="SVGID_13_" gradientUnits="userSpaceOnUse" x1="215.061" y1="101.1315" x2="224.201" y2="101.1315" gradientTransform="matrix(1 0 0 -1 0 206)">
				<stop  offset="0" style="stop-color:#00A9A9"/>
				<stop  offset="1" style="stop-color:#00A39F"/>
			</linearGradient>
			<path fill="url(#SVGID_13_)" d="M219.4,106.5c-0.3-0.3-0.6-0.5-0.7-0.8c-0.2-0.3-0.2-0.6-0.2-1c0-0.7,0.3-1.3,0.8-1.9
				c0.5-0.5,1.2-0.8,2-0.8c0.8,0,1.6,0.3,2.1,0.8c0.5,0.5,0.8,1.1,0.8,1.9c0,0.9-0.4,1.6-1.1,2.2c-0.7,0.5-1.7,0.8-2.9,0.8
				c-1.6,0-2.8-0.4-3.8-1.2c-1-0.8-1.4-1.9-1.4-3.2c0-0.4,0-0.8,0.1-0.9c0-0.1,0.2-0.2,0.4-0.2c0.3,0,0.4,0.3,0.4,0.8
				c0,0.4,0,0.7,0.1,0.9c0.1,0.7,0.5,1.3,1.1,1.8C217.8,106.1,218.4,106.4,219.4,106.5z M221.2,106.3c0.6,0,1-0.1,1.4-0.4
				s0.5-0.7,0.5-1.2c0-0.4-0.2-0.8-0.5-1.1c-0.4-0.3-0.8-0.4-1.3-0.4c-0.6,0-1,0.1-1.4,0.4c-0.4,0.3-0.5,0.7-0.5,1.2
				c0,0.4,0.2,0.8,0.5,1.1C220.3,106.2,220.7,106.3,221.2,106.3z"/>
			
				<linearGradient id="SVGID_14_" gradientUnits="userSpaceOnUse" x1="215.017" y1="109.428" x2="223.979" y2="109.428" gradientTransform="matrix(1 0 0 -1 0 206)">
				<stop  offset="0" style="stop-color:#00A9A9"/>
				<stop  offset="1" style="stop-color:#00A39F"/>
			</linearGradient>
			<path fill="url(#SVGID_14_)" d="M223.9,98.7c0,0.3,0,0.4-0.1,0.5c-0.1,0.1-0.3,0.2-0.4,0.2c-0.3,0-0.8-0.4-1.7-1.3l-0.2-0.2
				c-0.1-0.1-0.3-0.3-0.5-0.6c-1.5-1.6-2.6-2.4-3.3-2.4c-0.5,0-0.9,0.1-1.2,0.4c-0.3,0.3-0.4,0.7-0.4,1.1c0,0.3,0,0.6,0.2,0.8
				s0.3,0.5,0.5,0.6c0,0,0.1,0.1,0.2,0.1c0.3,0.2,0.4,0.4,0.4,0.6c0,0.2,0,0.3-0.1,0.4s-0.3,0.1-0.6,0.1c-0.2,0-0.3,0-0.4,0
				s-0.2-0.1-0.3-0.2c-0.3-0.3-0.5-0.7-0.7-1.1c-0.2-0.4-0.3-0.9-0.3-1.3c0-0.8,0.3-1.4,0.8-1.9c0.5-0.5,1.1-0.8,1.8-0.8
				c0.9,0,2.1,0.8,3.6,2.4c0.4,0.4,0.7,0.7,0.9,0.9l0.8,0.8v-3.2c-0.2,0-0.4-0.1-0.4-0.2s-0.2-0.2-0.2-0.4s0-0.3,0.1-0.4
				c0.1-0.1,0.2-0.1,0.4-0.1c0,0,0,0,0.1,0s0,0,0.1,0l0.5,0c0.1,0,0.3,0,0.4,0.1c0.1,0.1,0.1,0.2,0.1,0.3L223.9,98.7L223.9,98.7z"/>
			
				<linearGradient id="SVGID_15_" gradientUnits="userSpaceOnUse" x1="214.885" y1="118.213" x2="224.113" y2="118.213" gradientTransform="matrix(1 0 0 -1 0 206)">
				<stop  offset="0" style="stop-color:#00A9A9"/>
				<stop  offset="1" style="stop-color:#00A39F"/>
			</linearGradient>
			<path fill="url(#SVGID_15_)" d="M224.1,87.8c0,0.9-0.4,1.6-1.2,2.1s-2,0.8-3.4,0.8s-2.5-0.3-3.4-0.8s-1.2-1.2-1.2-2.1
				s0.4-1.6,1.2-2.1s2-0.8,3.4-0.8s2.5,0.3,3.4,0.8C223.7,86.2,224.1,86.9,224.1,87.8z M215.9,87.8c0,0.5,0.3,0.9,0.9,1.2
				c0.6,0.3,1.5,0.4,2.7,0.4c1.2,0,2-0.1,2.7-0.4s0.9-0.7,0.9-1.2s-0.3-0.9-0.9-1.2c-0.6-0.3-1.5-0.4-2.7-0.4c-1.2,0-2,0.1-2.7,0.4
				C216.2,86.9,215.9,87.3,215.9,87.8z"/>
			
				<linearGradient id="SVGID_16_" gradientUnits="userSpaceOnUse" x1="214.884" y1="126.9315" x2="223.803" y2="126.9315" gradientTransform="matrix(1 0 0 -1 0 206)">
				<stop  offset="0" style="stop-color:#00A9A9"/>
				<stop  offset="1" style="stop-color:#00A39F"/>
			</linearGradient>
			<path fill="url(#SVGID_16_)" d="M216.4,81c0,0,0,0.1,0,0.1c0,0,0,0,0,0.1c0,0.1,0,0.3-0.1,0.4c-0.1,0.1-0.2,0.1-0.3,0.1
				c-0.1,0-0.2,0-0.3-0.1c-0.1-0.1-0.1-0.2-0.2-0.4l-0.6-2c0,0,0-0.1,0-0.1s0-0.1,0-0.1c0-0.1,0-0.2,0.1-0.2c0.1,0,0.2-0.1,0.3-0.1
				h7.5v-1.1c0-0.4,0-0.7,0.1-0.8c0.1-0.1,0.2-0.2,0.4-0.2c0.2,0,0.3,0,0.4,0.1c0,0.1,0.1,0.2,0.1,0.4v4.1c0,0.2,0,0.3-0.1,0.4
				c-0.1,0.1-0.2,0.1-0.4,0.1c-0.2,0-0.3,0-0.4-0.2c-0.1-0.1-0.1-0.4-0.1-0.8v-1.1H216L216.4,81z"/>
			
				<linearGradient id="SVGID_17_" gradientUnits="userSpaceOnUse" x1="214.927" y1="135.0725" x2="223.891" y2="135.0725" gradientTransform="matrix(1 0 0 -1 0 206)">
				<stop  offset="0" style="stop-color:#00A9A9"/>
				<stop  offset="1" style="stop-color:#00A39F"/>
			</linearGradient>
			<path fill="url(#SVGID_17_)" d="M223.9,70.9c0,0.2,0,0.4-0.1,0.4c-0.1,0.1-0.2,0.1-0.4,0.1s-0.3,0-0.4-0.1
				c-0.1-0.1-0.1-0.2-0.1-0.4v-0.8h-1.2v3.2c0,0.1,0,0.2-0.1,0.3c-0.1,0-0.2,0.1-0.3,0.1h-0.5c-0.2,0-0.4-0.1-0.6-0.2
				c0,0-0.1,0-0.1,0l-5-2.9c-0.1,0-0.2-0.1-0.2-0.2s0-0.1,0-0.2c0,0,0-0.1,0-0.1v0l0.1-0.7c0,0,0-0.1,0.1-0.2c0,0,0.1,0,0.3,0h5.3
				v-0.4c0-0.1,0-0.2-0.1-0.2c-0.1,0-0.1-0.1-0.1-0.2c0-0.1,0-0.2,0.1-0.2c0,0,0.1-0.1,0.3-0.1c0,0,0.1,0,0.1,0s0.1,0,0.1,0l0.3,0
				c0.2,0,0.3,0.1,0.4,0.1c0,0,0.1,0.2,0.1,0.3v0.6h1.2V69c0-0.3,0-0.5,0.1-0.6c0.1-0.1,0.2-0.2,0.4-0.2s0.3,0,0.4,0.1
				c0.1,0.1,0.1,0.2,0.1,0.4v2.2L223.9,70.9L223.9,70.9z M220.7,70.2H216l4.7,2.6V70.2z"/>
		</g>
	</g>
	<g id="Laag_3">
		<path fill="none" stroke="#FFFFFF" stroke-width="3.1305" stroke-miterlimit="10" d="M233.2,146c0,2.9-2.4,5.3-5.3,5.3H36.6
			c-2.9,0-5.3-2.4-5.3-5.3V57.2c0-2.9,2.4-5.3,5.3-5.3h191.2c2.9,0,5.3,2.4,5.3,5.3V146z"/>
		<line fill="none" stroke="#FFFFFF" stroke-width="2.6833" stroke-miterlimit="10" x1="62.1" y1="52.1" x2="62.1" y2="151.5"/>
		<line fill="none" stroke="#FFFFFF" stroke-width="2.6833" stroke-miterlimit="10" x1="205" y1="52.1" x2="205" y2="151.5"/>
		<rect x="27" y="89" fill="none" width="214" height="35.5"/>
		<g enable-background="new    ">
			<path fill="#FFFFFF" d="M92.9,105.4l-1.3,2.5v8.4h-4.3V89h4.3v11.9L97.2,89h4.3l-6,12.2l6,15.1h-4.4L92.9,105.4z"/>
			<path fill="#FFFFFF" d="M107.7,100.5h5.9v3.9h-5.9v8h7.4v3.9h-11.7V89h11.7v3.9h-7.4V100.5z"/>
			<path fill="#FFFFFF" d="M126.8,116.3c-0.2-0.7-0.4-1.1-0.4-3.4v-4.3c0-2.5-0.9-3.5-2.8-3.5h-1.5v11.1h-4.3V89h6.5
				c4.4,0,6.4,2.1,6.4,6.3v2.1c0,2.8-0.9,4.6-2.8,5.5c2.1,0.9,2.8,3,2.8,5.8v4.2c0,1.3,0,2.3,0.5,3.3H126.8z M122.1,92.9v8.4h1.7
				c1.6,0,2.6-0.7,2.6-2.9v-2.7c0-2-0.7-2.8-2.2-2.8H122.1z"/>
			<path fill="#FFFFFF" d="M142.6,108.4l2.9-19.4h6v27.3h-4.1V96.7l-3,19.6h-4.1L137.2,97v19.3h-3.7V89h6L142.6,108.4z"/>
			<path fill="#FFFFFF" d="M158.7,112.1v4.1h-4.1v-4.1H158.7z"/>
			<path fill="#FFFFFF" d="M161.8,89h4.3v27.3h-4.3V89z"/>
			<path fill="#FFFFFF" d="M175,88.7c4.2,0,6.3,2.5,6.3,6.9v0.9h-4.1v-1.1c0-2-0.8-2.7-2.1-2.7s-2.1,0.7-2.1,2.7
				c0,5.6,8.4,6.7,8.4,14.5c0,4.4-2.2,6.9-6.4,6.9s-6.4-2.5-6.4-6.9V108h4.1v2c0,2,0.9,2.7,2.2,2.7s2.2-0.7,2.2-2.7
				c0-5.6-8.4-6.7-8.4-14.5C168.7,91.2,170.8,88.7,175,88.7z"/>
		</g>
		<line fill="none" stroke="#FFFFFF" stroke-miterlimit="10" x1="71.2" y1="77.1" x2="195.5" y2="77.1"/>
		<line fill="none" stroke="#FFFFFF" stroke-miterlimit="10" x1="71.2" y1="129.1" x2="195.5" y2="129.1"/>
	</g>
</g>
</svg>
