<?xml version="1.0" encoding="utf-8"?>
<!-- Generator: Adobe Illustrator 17.1.0, SVG Export Plug-In . SVG Version: 6.00 Build 0)  -->
<!DOCTYPE svg PUBLIC "-//W3C//DTD SVG 1.1//EN" "http://www.w3.org/Graphics/SVG/1.1/DTD/svg11.dtd">
<svg version="1.1" id="Layer_3" xmlns="http://www.w3.org/2000/svg" xmlns:xlink="http://www.w3.org/1999/xlink" x="0px" y="0px"
	 viewBox="0 0 595.3 247.1" enable-background="new 0 0 595.3 247.1" xml:space="preserve">
<g enable-background="new    ">
	<path fill="#FFFFFF" d="M124.3,89.4c0.4,1-0.4,1.6-0.6,2.7c-0.5,2.5-1.2,10.8-1.2,10.8h14.9v6h-15c-0.6,5.9-0.9,11.9-0.9,17.9
		c0,6.6,0.2,8.4,0.3,8.8c0.7,5.5,4.3,7.4,7.7,7.4c2.8,0,6.4-1.3,10.2-4.2l2.2,5.7c-3.9,2.8-9.2,5.1-14.6,5.1
		c-4.7,0-8.2-1.8-10.4-4.9c-2.7-3.7-2.7-8.3-2.7-12.4c0-7.8,0.3-15.5,0.9-23.4h-10.7l0.1-5.9h10.9l0.9-12.3L124.3,89.4z"/>
	<path fill="#FFFFFF" d="M154.6,82.2h8.3c0,0.1,0,0.2,0,0.3c0,0.5-0.4,0.8-0.6,1.1c-0.3,0.4-0.4,0.6-0.4,1V111
		c3.4-5.1,9-9.1,15.2-9.1c5.2,0,9.9,2.9,12.2,8.1c1.6,3.7,1.6,7.4,1.6,11v27.7h-7.1v-27.5c0-3.2,0-7.1-2.5-10.1
		c-1.6-2-3.9-2.9-6.2-2.9c-4.8,0-9.2,4-11,6.4c-1.9,2.5-2.3,4.8-2.3,7.8v26.3h-7.3V82.2z"/>
	<path fill="#FFFFFF" d="M215.1,103l-0.3,8.8c3-6.5,9.8-9.9,16.4-9.9c5.1,0,9.3,2,12.2,5l-3.4,6.9c-0.8-0.7-1.1-1.5-1.7-2.3
		c-1.3-1.6-3.7-3.4-7.5-3.4c-3.2,0-8.7,1.1-12.8,7.7c-3.1,4.9-3.2,7.9-3.2,10.7v22.3h-7.2V103H215.1z"/>
	<path fill="#FFFFFF" d="M291.6,118.1c0.4,2.7,0.6,5.6,0.3,8.7h-32.4c0.5,13.7,9.4,17,15.5,17c4.5,0,8.9-1.8,11.8-5.1l4,3.9
		c-3.9,4.7-9.8,7.1-16.4,7.1c-12.4,0-21.9-8.1-21.9-23.4c0-16.7,10.1-24.5,21-24.5C281,101.8,289.5,105.8,291.6,118.1z M284.8,121.3
		c0.9-7.4-4.4-13.9-11.8-13.9c-4.9,0-11.9,3.1-13.3,13.9H284.8z"/>
	<path fill="#FFFFFF" d="M341.6,118.1c0.4,2.7,0.6,5.6,0.3,8.7h-32.4c0.5,13.7,9.4,17,15.5,17c4.5,0,8.9-1.8,11.8-5.1l4,3.9
		c-3.9,4.7-9.8,7.1-16.4,7.1c-12.4,0-21.9-8.1-21.9-23.4c0-16.7,10.1-24.5,21-24.5C331,101.8,339.5,105.8,341.6,118.1z M334.8,121.3
		c0.9-7.4-4.4-13.9-11.8-13.9c-4.9,0-11.9,3.1-13.3,13.9H334.8z"/>
	<path fill="#FFFFFF" d="M371.5,149.8c-3.3,0-5.9-2.6-5.9-5.7c0-3.1,2.6-5.7,5.9-5.7c3.3,0,5.9,2.6,5.9,5.7
		C377.4,147.2,374.8,149.8,371.5,149.8z"/>
	<path fill="#FFFFFF" d="M434.5,102.9v42.5c0,3.9-0.1,7.7-2.1,11.5c-3.1,6.1-9.5,9.1-16,9.1c-5.7,0-10.7-2.3-14-6.4l4.7-6.2
		c0.6,0.5,0.5,1.2,0.9,1.8c0.4,0.6,3.4,4.6,8.9,4.6c3.9,0,7.5-2,9.2-5.8c1.1-2.4,1.2-4.8,1.2-7.3v-38h-17v-6H434.5z M436.1,88.2
		c0,2.8-2.3,5.1-5.2,5.1c-2.9,0-5.2-2.3-5.2-5.1c0-2.8,2.3-5.1,5.2-5.1C433.8,83.1,436.1,85.4,436.1,88.2z"/>
	<path fill="#FFFFFF" d="M486.6,115.3c-0.2,0-0.5-0.2-0.5-0.8c0-0.4,0.1-0.6-0.2-1c-1.7-2.2-6.2-6.3-12.7-6.3
		c-5.2,0-9.6,2.6-9.6,6.2c0,1.5,0.8,3.8,4.5,5.6c4.3,2.1,11.6,3.1,16.8,6c5.4,3,6.7,7.2,6.7,10.3c0,6.9-6.5,14.3-19,14.3
		c-6.9,0-13.9-2.3-19.3-7.2l4.1-7.2c0.5,0.2,0.4,0.8,0.4,0.9c0,0.4-0.1,0.7,0.3,1.1c1.4,1.6,6.5,6.4,14.3,6.4
		c6.5,0,11.7-2.9,11.7-7.2c0-1.7-0.8-4.1-4.6-5.8c-3.4-1.6-8.4-2.8-12.3-4.2c-2.5-0.9-11.1-3.8-11.1-11.8c0-6.8,7-12.8,17.6-12.8
		c6.8,0,12.8,2.5,17,7.2L486.6,115.3z"/>
</g>
</svg>
